<?xml version="1.0" standalone="no"?>
<!DOCTYPE svg PUBLIC "-//W3C//DTD SVG 20010904//EN"
 "http://www.w3.org/TR/2001/REC-SVG-20010904/DTD/svg10.dtd">
<svg version="1.0" xmlns="http://www.w3.org/2000/svg"
 width="930.000000pt" height="930.000000pt" viewBox="0 0 930.000000 930.000000"
 preserveAspectRatio="xMidYMid meet">
<metadata>
Created by potrace 1.11, written by Peter Selinger 2001-2013
</metadata>
<g transform="translate(0.000000,930.000000) scale(0.100000,-0.100000)"
fill="#000000" stroke="none">
<path d="M4468 9295 c-2 -1 -37 -5 -78 -9 -41 -3 -90 -8 -108 -10 -102 -15
-129 -20 -182 -31 -14 -3 -36 -8 -50 -11 -14 -3 -36 -7 -50 -10 -137 -27 -388
-118 -565 -205 -77 -38 -149 -75 -160 -81 -184 -115 -287 -187 -404 -282 -32
-26 -275 -269 -317 -316 -208 -238 -394 -568 -499 -885 -44 -132 -59 -191 -90
-355 -34 -178 -35 -201 -42 -542 l-5 -308 2311 0 2312 0 -1 -234 c-1 -159 -6
-253 -15 -293 -18 -76 -64 -171 -126 -258 -27 -38 -68 -97 -91 -130 -23 -33
-57 -82 -77 -110 -181 -258 -691 -989 -711 -1018 l-25 -37 -623 0 -623 0 64
93 c36 50 164 234 285 407 122 173 226 322 232 330 66 95 196 280 211 300 10
14 25 36 33 50 l14 26 -1584 0 -1584 0 0 -2011 c0 -2169 -2 -2051 51 -2195 93
-251 331 -498 665 -688 337 -192 791 -339 1254 -406 181 -26 191 -28 370 -42
198 -16 742 -10 895 10 17 3 58 7 92 11 34 3 70 7 80 9 10 2 38 7 63 10 25 3
56 8 70 11 13 2 42 7 64 11 21 3 80 14 130 25 50 11 99 22 108 24 10 2 70 18
134 35 587 157 1065 436 1294 758 89 126 149 257 164 365 l7 47 -2338 0 -2339
0 1 257 c2 352 -14 310 272 718 100 143 187 267 193 275 26 39 264 379 286
410 14 19 60 85 102 147 l77 112 623 1 c480 0 621 -3 616 -12 -4 -6 -47 -68
-96 -137 -48 -69 -93 -133 -100 -143 -6 -9 -125 -179 -265 -378 -139 -199
-251 -365 -249 -368 2 -4 728 -7 1613 -7 l1608 0 5 570 c6 635 2 3563 -5 3860
-6 233 -12 310 -36 429 -6 28 -13 65 -15 81 -10 57 -54 214 -88 312 -303 879
-1034 1533 -1956 1751 -95 23 -109 25 -265 48 -93 14 -526 29 -537 19z"/>
</g>
</svg>
